<mxfile host="app.diagrams.net" modified="2021-02-04T21:59:38.522Z" agent="5.0 (Windows NT 10.0; Win64; x64) AppleWebKit/537.36 (KHTML, like Gecko) Chrome/88.0.4324.104 Safari/537.36" etag="fSlFA2s0ujmxWtWUSm1G" version="13.10.0" type="github">
  <diagram id="JsG0qtpKEguwI-xBwZPF" name="Page-1">
    <mxGraphModel dx="1422" dy="705" grid="1" gridSize="10" guides="1" tooltips="1" connect="1" arrows="1" fold="1" page="1" pageScale="1" pageWidth="3300" pageHeight="2339" math="0" shadow="0">
      <root>
        <mxCell id="0" />
        <mxCell id="1" parent="0" />
        <mxCell id="dXR1djHrMBTUY8D0_lZp-13" value="" style="rounded=0;whiteSpace=wrap;html=1;fillColor=#fad9d5;strokeColor=#ae4132;" vertex="1" parent="1">
          <mxGeometry x="280" y="330" width="420" height="260" as="geometry" />
        </mxCell>
        <mxCell id="dXR1djHrMBTUY8D0_lZp-3" value="" style="edgeStyle=orthogonalEdgeStyle;rounded=0;orthogonalLoop=1;jettySize=auto;html=1;" edge="1" parent="1" source="dXR1djHrMBTUY8D0_lZp-1" target="dXR1djHrMBTUY8D0_lZp-2">
          <mxGeometry relative="1" as="geometry" />
        </mxCell>
        <mxCell id="dXR1djHrMBTUY8D0_lZp-1" value="PLP" style="rounded=0;whiteSpace=wrap;html=1;fillColor=#dae8fc;strokeColor=#6c8ebf;" vertex="1" parent="1">
          <mxGeometry x="340" y="390" width="120" height="130" as="geometry" />
        </mxCell>
        <mxCell id="dXR1djHrMBTUY8D0_lZp-5" value="" style="edgeStyle=orthogonalEdgeStyle;rounded=0;orthogonalLoop=1;jettySize=auto;html=1;" edge="1" parent="1" source="dXR1djHrMBTUY8D0_lZp-2" target="dXR1djHrMBTUY8D0_lZp-4">
          <mxGeometry relative="1" as="geometry" />
        </mxCell>
        <mxCell id="dXR1djHrMBTUY8D0_lZp-2" value="PDP" style="rounded=0;whiteSpace=wrap;html=1;fillColor=#dae8fc;strokeColor=#6c8ebf;" vertex="1" parent="1">
          <mxGeometry x="540" y="390" width="120" height="130" as="geometry" />
        </mxCell>
        <mxCell id="dXR1djHrMBTUY8D0_lZp-7" value="" style="edgeStyle=orthogonalEdgeStyle;rounded=0;orthogonalLoop=1;jettySize=auto;html=1;" edge="1" parent="1" source="dXR1djHrMBTUY8D0_lZp-4" target="dXR1djHrMBTUY8D0_lZp-6">
          <mxGeometry relative="1" as="geometry" />
        </mxCell>
        <mxCell id="dXR1djHrMBTUY8D0_lZp-4" value="PSC&lt;br&gt;Hub" style="rounded=0;whiteSpace=wrap;html=1;" vertex="1" parent="1">
          <mxGeometry x="740" y="390" width="120" height="130" as="geometry" />
        </mxCell>
        <mxCell id="dXR1djHrMBTUY8D0_lZp-9" value="" style="edgeStyle=orthogonalEdgeStyle;rounded=0;orthogonalLoop=1;jettySize=auto;html=1;" edge="1" parent="1" source="dXR1djHrMBTUY8D0_lZp-6" target="dXR1djHrMBTUY8D0_lZp-8">
          <mxGeometry relative="1" as="geometry" />
        </mxCell>
        <mxCell id="dXR1djHrMBTUY8D0_lZp-6" value="Cart" style="rounded=0;whiteSpace=wrap;html=1;" vertex="1" parent="1">
          <mxGeometry x="940" y="390" width="120" height="130" as="geometry" />
        </mxCell>
        <mxCell id="dXR1djHrMBTUY8D0_lZp-11" value="" style="edgeStyle=orthogonalEdgeStyle;rounded=0;orthogonalLoop=1;jettySize=auto;html=1;" edge="1" parent="1" source="dXR1djHrMBTUY8D0_lZp-8" target="dXR1djHrMBTUY8D0_lZp-10">
          <mxGeometry relative="1" as="geometry" />
        </mxCell>
        <mxCell id="dXR1djHrMBTUY8D0_lZp-8" value="Checkout" style="rounded=0;whiteSpace=wrap;html=1;" vertex="1" parent="1">
          <mxGeometry x="1140" y="390" width="120" height="130" as="geometry" />
        </mxCell>
        <mxCell id="dXR1djHrMBTUY8D0_lZp-10" value="ThankYou" style="rounded=0;whiteSpace=wrap;html=1;" vertex="1" parent="1">
          <mxGeometry x="1340" y="390" width="120" height="130" as="geometry" />
        </mxCell>
        <mxCell id="dXR1djHrMBTUY8D0_lZp-12" value="PreScreen" style="rounded=0;whiteSpace=wrap;html=1;fillColor=#60a917;strokeColor=#2D7600;fontColor=#ffffff;" vertex="1" parent="1">
          <mxGeometry x="360" y="420" width="80" height="20" as="geometry" />
        </mxCell>
      </root>
    </mxGraphModel>
  </diagram>
</mxfile>
